<mxfile host="app.diagrams.net" modified="2022-10-19T10:57:37.086Z" agent="5.0 (Macintosh; Intel Mac OS X 10_15_7) AppleWebKit/537.36 (KHTML, like Gecko) Chrome/105.0.0.0 Safari/537.36 OPR/91.0.4516.72" etag="9N0P75cLIuykjl3knsgh" version="20.2.2" type="github">
  <diagram id="LsJ-tvc_FQfIHzTmIeyL" name="Pagina-1">
    <mxGraphModel dx="603" dy="276" grid="1" gridSize="10" guides="1" tooltips="1" connect="1" arrows="1" fold="1" page="1" pageScale="1" pageWidth="827" pageHeight="1169" math="0" shadow="0">
      <root>
        <mxCell id="0" />
        <mxCell id="1" parent="0" />
        <mxCell id="De1ImopoqIkRaQfG8N2U-136" value="" style="rounded=0;whiteSpace=wrap;html=1;fontSize=36;" vertex="1" parent="1">
          <mxGeometry x="105" y="641" width="30" height="60" as="geometry" />
        </mxCell>
        <mxCell id="De1ImopoqIkRaQfG8N2U-137" value="" style="rounded=0;whiteSpace=wrap;html=1;fontSize=36;" vertex="1" parent="1">
          <mxGeometry x="135" y="641" width="30" height="60" as="geometry" />
        </mxCell>
        <mxCell id="De1ImopoqIkRaQfG8N2U-138" value="" style="rounded=0;whiteSpace=wrap;html=1;fontSize=36;" vertex="1" parent="1">
          <mxGeometry x="165" y="641" width="30" height="60" as="geometry" />
        </mxCell>
        <mxCell id="De1ImopoqIkRaQfG8N2U-133" value="" style="rounded=0;whiteSpace=wrap;html=1;fontSize=36;" vertex="1" parent="1">
          <mxGeometry x="105" y="511" width="30" height="60" as="geometry" />
        </mxCell>
        <mxCell id="De1ImopoqIkRaQfG8N2U-134" value="" style="rounded=0;whiteSpace=wrap;html=1;fontSize=36;" vertex="1" parent="1">
          <mxGeometry x="135" y="511" width="30" height="60" as="geometry" />
        </mxCell>
        <mxCell id="De1ImopoqIkRaQfG8N2U-135" value="" style="rounded=0;whiteSpace=wrap;html=1;fontSize=36;" vertex="1" parent="1">
          <mxGeometry x="165" y="511" width="30" height="60" as="geometry" />
        </mxCell>
        <mxCell id="De1ImopoqIkRaQfG8N2U-1" value="" style="rounded=0;whiteSpace=wrap;html=1;" vertex="1" parent="1">
          <mxGeometry x="30" y="110" width="120" height="60" as="geometry" />
        </mxCell>
        <mxCell id="De1ImopoqIkRaQfG8N2U-2" value="" style="endArrow=none;html=1;rounded=0;exitX=0.25;exitY=1;exitDx=0;exitDy=0;entryX=0.25;entryY=0;entryDx=0;entryDy=0;" edge="1" parent="1" source="De1ImopoqIkRaQfG8N2U-1" target="De1ImopoqIkRaQfG8N2U-1">
          <mxGeometry width="50" height="50" relative="1" as="geometry">
            <mxPoint x="30" y="160" as="sourcePoint" />
            <mxPoint x="80" y="110" as="targetPoint" />
          </mxGeometry>
        </mxCell>
        <mxCell id="De1ImopoqIkRaQfG8N2U-3" value="" style="endArrow=none;html=1;rounded=0;entryX=0.5;entryY=0;entryDx=0;entryDy=0;exitX=0.5;exitY=1;exitDx=0;exitDy=0;" edge="1" parent="1" source="De1ImopoqIkRaQfG8N2U-1" target="De1ImopoqIkRaQfG8N2U-1">
          <mxGeometry width="50" height="50" relative="1" as="geometry">
            <mxPoint x="65" y="165" as="sourcePoint" />
            <mxPoint x="115" y="115" as="targetPoint" />
            <Array as="points" />
          </mxGeometry>
        </mxCell>
        <mxCell id="De1ImopoqIkRaQfG8N2U-4" value="" style="endArrow=none;html=1;rounded=0;entryX=0.75;entryY=0;entryDx=0;entryDy=0;exitX=0.75;exitY=1;exitDx=0;exitDy=0;" edge="1" parent="1" source="De1ImopoqIkRaQfG8N2U-1" target="De1ImopoqIkRaQfG8N2U-1">
          <mxGeometry width="50" height="50" relative="1" as="geometry">
            <mxPoint x="130" y="220" as="sourcePoint" />
            <mxPoint x="180" y="170" as="targetPoint" />
          </mxGeometry>
        </mxCell>
        <mxCell id="De1ImopoqIkRaQfG8N2U-5" value="1a" style="text;html=1;resizable=0;autosize=1;align=center;verticalAlign=middle;points=[];fillColor=none;strokeColor=none;rounded=0;" vertex="1" parent="1">
          <mxGeometry x="25" y="125" width="40" height="30" as="geometry" />
        </mxCell>
        <mxCell id="De1ImopoqIkRaQfG8N2U-6" value="2a" style="text;html=1;resizable=0;autosize=1;align=center;verticalAlign=middle;points=[];fillColor=none;strokeColor=none;rounded=0;" vertex="1" parent="1">
          <mxGeometry x="55" y="125" width="40" height="30" as="geometry" />
        </mxCell>
        <mxCell id="De1ImopoqIkRaQfG8N2U-7" value="3a" style="text;html=1;resizable=0;autosize=1;align=center;verticalAlign=middle;points=[];fillColor=none;strokeColor=none;rounded=0;" vertex="1" parent="1">
          <mxGeometry x="85" y="125" width="40" height="30" as="geometry" />
        </mxCell>
        <mxCell id="De1ImopoqIkRaQfG8N2U-8" value="4a" style="text;html=1;resizable=0;autosize=1;align=center;verticalAlign=middle;points=[];fillColor=none;strokeColor=none;rounded=0;" vertex="1" parent="1">
          <mxGeometry x="115" y="125" width="40" height="30" as="geometry" />
        </mxCell>
        <mxCell id="De1ImopoqIkRaQfG8N2U-9" value="" style="rounded=0;whiteSpace=wrap;html=1;" vertex="1" parent="1">
          <mxGeometry x="210" y="110" width="120" height="60" as="geometry" />
        </mxCell>
        <mxCell id="De1ImopoqIkRaQfG8N2U-10" value="" style="endArrow=none;html=1;rounded=0;exitX=0.25;exitY=1;exitDx=0;exitDy=0;entryX=0.25;entryY=0;entryDx=0;entryDy=0;" edge="1" parent="1" source="De1ImopoqIkRaQfG8N2U-9" target="De1ImopoqIkRaQfG8N2U-9">
          <mxGeometry width="50" height="50" relative="1" as="geometry">
            <mxPoint x="210" y="160" as="sourcePoint" />
            <mxPoint x="260" y="110" as="targetPoint" />
          </mxGeometry>
        </mxCell>
        <mxCell id="De1ImopoqIkRaQfG8N2U-11" value="" style="endArrow=none;html=1;rounded=0;entryX=0.5;entryY=0;entryDx=0;entryDy=0;exitX=0.5;exitY=1;exitDx=0;exitDy=0;" edge="1" parent="1" source="De1ImopoqIkRaQfG8N2U-9" target="De1ImopoqIkRaQfG8N2U-9">
          <mxGeometry width="50" height="50" relative="1" as="geometry">
            <mxPoint x="245" y="165" as="sourcePoint" />
            <mxPoint x="295" y="115" as="targetPoint" />
            <Array as="points" />
          </mxGeometry>
        </mxCell>
        <mxCell id="De1ImopoqIkRaQfG8N2U-12" value="" style="endArrow=none;html=1;rounded=0;entryX=0.75;entryY=0;entryDx=0;entryDy=0;exitX=0.75;exitY=1;exitDx=0;exitDy=0;" edge="1" parent="1" source="De1ImopoqIkRaQfG8N2U-9" target="De1ImopoqIkRaQfG8N2U-9">
          <mxGeometry width="50" height="50" relative="1" as="geometry">
            <mxPoint x="310" y="220" as="sourcePoint" />
            <mxPoint x="360" y="170" as="targetPoint" />
          </mxGeometry>
        </mxCell>
        <mxCell id="De1ImopoqIkRaQfG8N2U-13" value="1a" style="text;html=1;resizable=0;autosize=1;align=center;verticalAlign=middle;points=[];fillColor=none;strokeColor=none;rounded=0;" vertex="1" parent="1">
          <mxGeometry x="205" y="125" width="40" height="30" as="geometry" />
        </mxCell>
        <mxCell id="De1ImopoqIkRaQfG8N2U-14" value="2a" style="text;html=1;resizable=0;autosize=1;align=center;verticalAlign=middle;points=[];fillColor=none;strokeColor=none;rounded=0;" vertex="1" parent="1">
          <mxGeometry x="235" y="125" width="40" height="30" as="geometry" />
        </mxCell>
        <mxCell id="De1ImopoqIkRaQfG8N2U-15" value="3a" style="text;html=1;resizable=0;autosize=1;align=center;verticalAlign=middle;points=[];fillColor=none;strokeColor=none;rounded=0;" vertex="1" parent="1">
          <mxGeometry x="265" y="125" width="40" height="30" as="geometry" />
        </mxCell>
        <mxCell id="De1ImopoqIkRaQfG8N2U-16" value="4a" style="text;html=1;resizable=0;autosize=1;align=center;verticalAlign=middle;points=[];fillColor=none;strokeColor=none;rounded=0;" vertex="1" parent="1">
          <mxGeometry x="295" y="125" width="40" height="30" as="geometry" />
        </mxCell>
        <mxCell id="De1ImopoqIkRaQfG8N2U-17" value="" style="rounded=0;whiteSpace=wrap;html=1;" vertex="1" parent="1">
          <mxGeometry x="455" y="110" width="120" height="60" as="geometry" />
        </mxCell>
        <mxCell id="De1ImopoqIkRaQfG8N2U-18" value="" style="endArrow=none;html=1;rounded=0;exitX=0.25;exitY=1;exitDx=0;exitDy=0;entryX=0.25;entryY=0;entryDx=0;entryDy=0;" edge="1" parent="1" source="De1ImopoqIkRaQfG8N2U-17" target="De1ImopoqIkRaQfG8N2U-17">
          <mxGeometry width="50" height="50" relative="1" as="geometry">
            <mxPoint x="455" y="160" as="sourcePoint" />
            <mxPoint x="505" y="110" as="targetPoint" />
          </mxGeometry>
        </mxCell>
        <mxCell id="De1ImopoqIkRaQfG8N2U-19" value="" style="endArrow=none;html=1;rounded=0;entryX=0.5;entryY=0;entryDx=0;entryDy=0;exitX=0.5;exitY=1;exitDx=0;exitDy=0;" edge="1" parent="1" source="De1ImopoqIkRaQfG8N2U-17" target="De1ImopoqIkRaQfG8N2U-17">
          <mxGeometry width="50" height="50" relative="1" as="geometry">
            <mxPoint x="490" y="165" as="sourcePoint" />
            <mxPoint x="540" y="115" as="targetPoint" />
            <Array as="points" />
          </mxGeometry>
        </mxCell>
        <mxCell id="De1ImopoqIkRaQfG8N2U-20" value="" style="endArrow=none;html=1;rounded=0;entryX=0.75;entryY=0;entryDx=0;entryDy=0;exitX=0.75;exitY=1;exitDx=0;exitDy=0;" edge="1" parent="1" source="De1ImopoqIkRaQfG8N2U-17" target="De1ImopoqIkRaQfG8N2U-17">
          <mxGeometry width="50" height="50" relative="1" as="geometry">
            <mxPoint x="555" y="220" as="sourcePoint" />
            <mxPoint x="605" y="170" as="targetPoint" />
          </mxGeometry>
        </mxCell>
        <mxCell id="De1ImopoqIkRaQfG8N2U-21" value="1a" style="text;html=1;resizable=0;autosize=1;align=center;verticalAlign=middle;points=[];fillColor=none;strokeColor=none;rounded=0;" vertex="1" parent="1">
          <mxGeometry x="450" y="125" width="40" height="30" as="geometry" />
        </mxCell>
        <mxCell id="De1ImopoqIkRaQfG8N2U-22" value="2a" style="text;html=1;resizable=0;autosize=1;align=center;verticalAlign=middle;points=[];fillColor=none;strokeColor=none;rounded=0;" vertex="1" parent="1">
          <mxGeometry x="480" y="125" width="40" height="30" as="geometry" />
        </mxCell>
        <mxCell id="De1ImopoqIkRaQfG8N2U-23" value="3a" style="text;html=1;resizable=0;autosize=1;align=center;verticalAlign=middle;points=[];fillColor=none;strokeColor=none;rounded=0;" vertex="1" parent="1">
          <mxGeometry x="510" y="125" width="40" height="30" as="geometry" />
        </mxCell>
        <mxCell id="De1ImopoqIkRaQfG8N2U-24" value="4a" style="text;html=1;resizable=0;autosize=1;align=center;verticalAlign=middle;points=[];fillColor=none;strokeColor=none;rounded=0;" vertex="1" parent="1">
          <mxGeometry x="540" y="125" width="40" height="30" as="geometry" />
        </mxCell>
        <mxCell id="De1ImopoqIkRaQfG8N2U-33" value="" style="rounded=0;whiteSpace=wrap;html=1;" vertex="1" parent="1">
          <mxGeometry x="30" y="230" width="120" height="60" as="geometry" />
        </mxCell>
        <mxCell id="De1ImopoqIkRaQfG8N2U-34" value="" style="endArrow=none;html=1;rounded=0;exitX=0.25;exitY=1;exitDx=0;exitDy=0;entryX=0.25;entryY=0;entryDx=0;entryDy=0;" edge="1" parent="1" source="De1ImopoqIkRaQfG8N2U-33" target="De1ImopoqIkRaQfG8N2U-33">
          <mxGeometry width="50" height="50" relative="1" as="geometry">
            <mxPoint x="30" y="280" as="sourcePoint" />
            <mxPoint x="80" y="230" as="targetPoint" />
          </mxGeometry>
        </mxCell>
        <mxCell id="De1ImopoqIkRaQfG8N2U-35" value="" style="endArrow=none;html=1;rounded=0;entryX=0.5;entryY=0;entryDx=0;entryDy=0;exitX=0.5;exitY=1;exitDx=0;exitDy=0;" edge="1" parent="1" source="De1ImopoqIkRaQfG8N2U-33" target="De1ImopoqIkRaQfG8N2U-33">
          <mxGeometry width="50" height="50" relative="1" as="geometry">
            <mxPoint x="65" y="285" as="sourcePoint" />
            <mxPoint x="115" y="235" as="targetPoint" />
            <Array as="points" />
          </mxGeometry>
        </mxCell>
        <mxCell id="De1ImopoqIkRaQfG8N2U-36" value="" style="endArrow=none;html=1;rounded=0;entryX=0.75;entryY=0;entryDx=0;entryDy=0;exitX=0.75;exitY=1;exitDx=0;exitDy=0;" edge="1" parent="1" source="De1ImopoqIkRaQfG8N2U-33" target="De1ImopoqIkRaQfG8N2U-33">
          <mxGeometry width="50" height="50" relative="1" as="geometry">
            <mxPoint x="130" y="340" as="sourcePoint" />
            <mxPoint x="180" y="290" as="targetPoint" />
          </mxGeometry>
        </mxCell>
        <mxCell id="De1ImopoqIkRaQfG8N2U-37" value="1b" style="text;html=1;resizable=0;autosize=1;align=center;verticalAlign=middle;points=[];fillColor=none;strokeColor=none;rounded=0;" vertex="1" parent="1">
          <mxGeometry x="25" y="245" width="40" height="30" as="geometry" />
        </mxCell>
        <mxCell id="De1ImopoqIkRaQfG8N2U-38" value="2b" style="text;html=1;resizable=0;autosize=1;align=center;verticalAlign=middle;points=[];fillColor=none;strokeColor=none;rounded=0;" vertex="1" parent="1">
          <mxGeometry x="55" y="245" width="40" height="30" as="geometry" />
        </mxCell>
        <mxCell id="De1ImopoqIkRaQfG8N2U-39" value="3b" style="text;html=1;resizable=0;autosize=1;align=center;verticalAlign=middle;points=[];fillColor=none;strokeColor=none;rounded=0;" vertex="1" parent="1">
          <mxGeometry x="85" y="245" width="40" height="30" as="geometry" />
        </mxCell>
        <mxCell id="De1ImopoqIkRaQfG8N2U-40" value="4b" style="text;html=1;resizable=0;autosize=1;align=center;verticalAlign=middle;points=[];fillColor=none;strokeColor=none;rounded=0;" vertex="1" parent="1">
          <mxGeometry x="115" y="245" width="40" height="30" as="geometry" />
        </mxCell>
        <mxCell id="De1ImopoqIkRaQfG8N2U-41" value="&lt;font style=&quot;font-size: 36px;&quot;&gt;+&lt;/font&gt;" style="text;html=1;resizable=0;autosize=1;align=center;verticalAlign=middle;points=[];fillColor=none;strokeColor=none;rounded=0;" vertex="1" parent="1">
          <mxGeometry x="70" y="170" width="40" height="60" as="geometry" />
        </mxCell>
        <mxCell id="De1ImopoqIkRaQfG8N2U-42" value="" style="rounded=0;whiteSpace=wrap;html=1;" vertex="1" parent="1">
          <mxGeometry x="210" y="230" width="120" height="60" as="geometry" />
        </mxCell>
        <mxCell id="De1ImopoqIkRaQfG8N2U-43" value="" style="endArrow=none;html=1;rounded=0;exitX=0.25;exitY=1;exitDx=0;exitDy=0;entryX=0.25;entryY=0;entryDx=0;entryDy=0;" edge="1" parent="1" source="De1ImopoqIkRaQfG8N2U-42" target="De1ImopoqIkRaQfG8N2U-42">
          <mxGeometry width="50" height="50" relative="1" as="geometry">
            <mxPoint x="210" y="280" as="sourcePoint" />
            <mxPoint x="260" y="230" as="targetPoint" />
          </mxGeometry>
        </mxCell>
        <mxCell id="De1ImopoqIkRaQfG8N2U-44" value="" style="endArrow=none;html=1;rounded=0;entryX=0.5;entryY=0;entryDx=0;entryDy=0;exitX=0.5;exitY=1;exitDx=0;exitDy=0;" edge="1" parent="1" source="De1ImopoqIkRaQfG8N2U-42" target="De1ImopoqIkRaQfG8N2U-42">
          <mxGeometry width="50" height="50" relative="1" as="geometry">
            <mxPoint x="245" y="285" as="sourcePoint" />
            <mxPoint x="295" y="235" as="targetPoint" />
            <Array as="points" />
          </mxGeometry>
        </mxCell>
        <mxCell id="De1ImopoqIkRaQfG8N2U-45" value="" style="endArrow=none;html=1;rounded=0;entryX=0.75;entryY=0;entryDx=0;entryDy=0;exitX=0.75;exitY=1;exitDx=0;exitDy=0;" edge="1" parent="1" source="De1ImopoqIkRaQfG8N2U-42" target="De1ImopoqIkRaQfG8N2U-42">
          <mxGeometry width="50" height="50" relative="1" as="geometry">
            <mxPoint x="310" y="340" as="sourcePoint" />
            <mxPoint x="360" y="290" as="targetPoint" />
          </mxGeometry>
        </mxCell>
        <mxCell id="De1ImopoqIkRaQfG8N2U-46" value="1b" style="text;html=1;resizable=0;autosize=1;align=center;verticalAlign=middle;points=[];fillColor=none;strokeColor=none;rounded=0;" vertex="1" parent="1">
          <mxGeometry x="235" y="245" width="40" height="30" as="geometry" />
        </mxCell>
        <mxCell id="De1ImopoqIkRaQfG8N2U-47" value="2b" style="text;html=1;resizable=0;autosize=1;align=center;verticalAlign=middle;points=[];fillColor=none;strokeColor=none;rounded=0;" vertex="1" parent="1">
          <mxGeometry x="205" y="245" width="40" height="30" as="geometry" />
        </mxCell>
        <mxCell id="De1ImopoqIkRaQfG8N2U-48" value="3b" style="text;html=1;resizable=0;autosize=1;align=center;verticalAlign=middle;points=[];fillColor=none;strokeColor=none;rounded=0;" vertex="1" parent="1">
          <mxGeometry x="265" y="245" width="40" height="30" as="geometry" />
        </mxCell>
        <mxCell id="De1ImopoqIkRaQfG8N2U-49" value="4b" style="text;html=1;resizable=0;autosize=1;align=center;verticalAlign=middle;points=[];fillColor=none;strokeColor=none;rounded=0;" vertex="1" parent="1">
          <mxGeometry x="295" y="245" width="40" height="30" as="geometry" />
        </mxCell>
        <mxCell id="De1ImopoqIkRaQfG8N2U-50" value="" style="rounded=0;whiteSpace=wrap;html=1;" vertex="1" parent="1">
          <mxGeometry x="455" y="230" width="120" height="60" as="geometry" />
        </mxCell>
        <mxCell id="De1ImopoqIkRaQfG8N2U-51" value="" style="endArrow=none;html=1;rounded=0;exitX=0.25;exitY=1;exitDx=0;exitDy=0;entryX=0.25;entryY=0;entryDx=0;entryDy=0;" edge="1" parent="1" source="De1ImopoqIkRaQfG8N2U-50" target="De1ImopoqIkRaQfG8N2U-50">
          <mxGeometry width="50" height="50" relative="1" as="geometry">
            <mxPoint x="455" y="280" as="sourcePoint" />
            <mxPoint x="505" y="230" as="targetPoint" />
          </mxGeometry>
        </mxCell>
        <mxCell id="De1ImopoqIkRaQfG8N2U-52" value="" style="endArrow=none;html=1;rounded=0;entryX=0.5;entryY=0;entryDx=0;entryDy=0;exitX=0.5;exitY=1;exitDx=0;exitDy=0;" edge="1" parent="1" source="De1ImopoqIkRaQfG8N2U-50" target="De1ImopoqIkRaQfG8N2U-50">
          <mxGeometry width="50" height="50" relative="1" as="geometry">
            <mxPoint x="490" y="285" as="sourcePoint" />
            <mxPoint x="540" y="235" as="targetPoint" />
            <Array as="points" />
          </mxGeometry>
        </mxCell>
        <mxCell id="De1ImopoqIkRaQfG8N2U-53" value="" style="endArrow=none;html=1;rounded=0;entryX=0.75;entryY=0;entryDx=0;entryDy=0;exitX=0.75;exitY=1;exitDx=0;exitDy=0;" edge="1" parent="1" source="De1ImopoqIkRaQfG8N2U-50" target="De1ImopoqIkRaQfG8N2U-50">
          <mxGeometry width="50" height="50" relative="1" as="geometry">
            <mxPoint x="555" y="340" as="sourcePoint" />
            <mxPoint x="605" y="290" as="targetPoint" />
          </mxGeometry>
        </mxCell>
        <mxCell id="De1ImopoqIkRaQfG8N2U-54" value="1b" style="text;html=1;resizable=0;autosize=1;align=center;verticalAlign=middle;points=[];fillColor=none;strokeColor=none;rounded=0;" vertex="1" parent="1">
          <mxGeometry x="510" y="245" width="40" height="30" as="geometry" />
        </mxCell>
        <mxCell id="De1ImopoqIkRaQfG8N2U-55" value="2b" style="text;html=1;resizable=0;autosize=1;align=center;verticalAlign=middle;points=[];fillColor=none;strokeColor=none;rounded=0;" vertex="1" parent="1">
          <mxGeometry x="450" y="245" width="40" height="30" as="geometry" />
        </mxCell>
        <mxCell id="De1ImopoqIkRaQfG8N2U-56" value="3b" style="text;html=1;resizable=0;autosize=1;align=center;verticalAlign=middle;points=[];fillColor=none;strokeColor=none;rounded=0;" vertex="1" parent="1">
          <mxGeometry x="480" y="245" width="40" height="30" as="geometry" />
        </mxCell>
        <mxCell id="De1ImopoqIkRaQfG8N2U-57" value="4b" style="text;html=1;resizable=0;autosize=1;align=center;verticalAlign=middle;points=[];fillColor=none;strokeColor=none;rounded=0;" vertex="1" parent="1">
          <mxGeometry x="540" y="245" width="40" height="30" as="geometry" />
        </mxCell>
        <mxCell id="De1ImopoqIkRaQfG8N2U-66" value="&lt;font style=&quot;font-size: 36px;&quot;&gt;+&lt;/font&gt;" style="text;html=1;resizable=0;autosize=1;align=center;verticalAlign=middle;points=[];fillColor=none;strokeColor=none;rounded=0;" vertex="1" parent="1">
          <mxGeometry x="250" y="170" width="40" height="60" as="geometry" />
        </mxCell>
        <mxCell id="De1ImopoqIkRaQfG8N2U-67" value="&lt;font style=&quot;font-size: 36px;&quot;&gt;+&lt;/font&gt;" style="text;html=1;resizable=0;autosize=1;align=center;verticalAlign=middle;points=[];fillColor=none;strokeColor=none;rounded=0;" vertex="1" parent="1">
          <mxGeometry x="495" y="170" width="40" height="60" as="geometry" />
        </mxCell>
        <mxCell id="De1ImopoqIkRaQfG8N2U-69" value="" style="rounded=0;whiteSpace=wrap;html=1;fontSize=36;" vertex="1" parent="1">
          <mxGeometry x="25" y="350" width="30" height="60" as="geometry" />
        </mxCell>
        <mxCell id="De1ImopoqIkRaQfG8N2U-70" value="" style="rounded=0;whiteSpace=wrap;html=1;fontSize=36;" vertex="1" parent="1">
          <mxGeometry x="25" y="410" width="30" height="60" as="geometry" />
        </mxCell>
        <mxCell id="De1ImopoqIkRaQfG8N2U-72" value="1a" style="text;html=1;resizable=0;autosize=1;align=center;verticalAlign=middle;points=[];fillColor=none;strokeColor=none;rounded=0;" vertex="1" parent="1">
          <mxGeometry x="20" y="370" width="40" height="30" as="geometry" />
        </mxCell>
        <mxCell id="De1ImopoqIkRaQfG8N2U-73" value="1b" style="text;html=1;resizable=0;autosize=1;align=center;verticalAlign=middle;points=[];fillColor=none;strokeColor=none;rounded=0;" vertex="1" parent="1">
          <mxGeometry x="20" y="425" width="40" height="30" as="geometry" />
        </mxCell>
        <mxCell id="De1ImopoqIkRaQfG8N2U-74" value="se la valutazione della colonna è minore della soglia stabilita, 1a e 1b vengono rimosse dalle matrici" style="text;html=1;strokeColor=none;fillColor=none;align=center;verticalAlign=middle;whiteSpace=wrap;rounded=0;fontSize=12;" vertex="1" parent="1">
          <mxGeometry x="80" y="395" width="260" height="30" as="geometry" />
        </mxCell>
        <mxCell id="De1ImopoqIkRaQfG8N2U-80" value="2a" style="text;html=1;resizable=0;autosize=1;align=center;verticalAlign=middle;points=[];fillColor=none;strokeColor=none;rounded=0;" vertex="1" parent="1">
          <mxGeometry x="100" y="526" width="40" height="30" as="geometry" />
        </mxCell>
        <mxCell id="De1ImopoqIkRaQfG8N2U-81" value="3a" style="text;html=1;resizable=0;autosize=1;align=center;verticalAlign=middle;points=[];fillColor=none;strokeColor=none;rounded=0;" vertex="1" parent="1">
          <mxGeometry x="130" y="526" width="40" height="30" as="geometry" />
        </mxCell>
        <mxCell id="De1ImopoqIkRaQfG8N2U-82" value="4a" style="text;html=1;resizable=0;autosize=1;align=center;verticalAlign=middle;points=[];fillColor=none;strokeColor=none;rounded=0;" vertex="1" parent="1">
          <mxGeometry x="160" y="526" width="40" height="30" as="geometry" />
        </mxCell>
        <mxCell id="De1ImopoqIkRaQfG8N2U-104" value="2b" style="text;html=1;resizable=0;autosize=1;align=center;verticalAlign=middle;points=[];fillColor=none;strokeColor=none;rounded=0;" vertex="1" parent="1">
          <mxGeometry x="100" y="656" width="40" height="30" as="geometry" />
        </mxCell>
        <mxCell id="De1ImopoqIkRaQfG8N2U-105" value="3b" style="text;html=1;resizable=0;autosize=1;align=center;verticalAlign=middle;points=[];fillColor=none;strokeColor=none;rounded=0;" vertex="1" parent="1">
          <mxGeometry x="130" y="656" width="40" height="30" as="geometry" />
        </mxCell>
        <mxCell id="De1ImopoqIkRaQfG8N2U-106" value="4b" style="text;html=1;resizable=0;autosize=1;align=center;verticalAlign=middle;points=[];fillColor=none;strokeColor=none;rounded=0;" vertex="1" parent="1">
          <mxGeometry x="160" y="656" width="40" height="30" as="geometry" />
        </mxCell>
        <mxCell id="De1ImopoqIkRaQfG8N2U-123" value="&lt;font style=&quot;font-size: 36px;&quot;&gt;+&lt;/font&gt;" style="text;html=1;resizable=0;autosize=1;align=center;verticalAlign=middle;points=[];fillColor=none;strokeColor=none;rounded=0;" vertex="1" parent="1">
          <mxGeometry x="130" y="571" width="40" height="60" as="geometry" />
        </mxCell>
        <mxCell id="De1ImopoqIkRaQfG8N2U-126" value="le successive permutazioni risulterebbero:" style="text;html=1;strokeColor=none;fillColor=none;align=center;verticalAlign=middle;whiteSpace=wrap;rounded=0;fontSize=12;" vertex="1" parent="1">
          <mxGeometry x="180" y="455" width="300" height="30" as="geometry" />
        </mxCell>
        <mxCell id="De1ImopoqIkRaQfG8N2U-139" value="" style="rounded=0;whiteSpace=wrap;html=1;fontSize=36;" vertex="1" parent="1">
          <mxGeometry x="245" y="640" width="30" height="60" as="geometry" />
        </mxCell>
        <mxCell id="De1ImopoqIkRaQfG8N2U-140" value="" style="rounded=0;whiteSpace=wrap;html=1;fontSize=36;" vertex="1" parent="1">
          <mxGeometry x="275" y="640" width="30" height="60" as="geometry" />
        </mxCell>
        <mxCell id="De1ImopoqIkRaQfG8N2U-141" value="" style="rounded=0;whiteSpace=wrap;html=1;fontSize=36;" vertex="1" parent="1">
          <mxGeometry x="305" y="640" width="30" height="60" as="geometry" />
        </mxCell>
        <mxCell id="De1ImopoqIkRaQfG8N2U-142" value="" style="rounded=0;whiteSpace=wrap;html=1;fontSize=36;" vertex="1" parent="1">
          <mxGeometry x="245" y="510" width="30" height="60" as="geometry" />
        </mxCell>
        <mxCell id="De1ImopoqIkRaQfG8N2U-143" value="" style="rounded=0;whiteSpace=wrap;html=1;fontSize=36;" vertex="1" parent="1">
          <mxGeometry x="275" y="510" width="30" height="60" as="geometry" />
        </mxCell>
        <mxCell id="De1ImopoqIkRaQfG8N2U-144" value="" style="rounded=0;whiteSpace=wrap;html=1;fontSize=36;" vertex="1" parent="1">
          <mxGeometry x="305" y="510" width="30" height="60" as="geometry" />
        </mxCell>
        <mxCell id="De1ImopoqIkRaQfG8N2U-145" value="2a" style="text;html=1;resizable=0;autosize=1;align=center;verticalAlign=middle;points=[];fillColor=none;strokeColor=none;rounded=0;" vertex="1" parent="1">
          <mxGeometry x="240" y="525" width="40" height="30" as="geometry" />
        </mxCell>
        <mxCell id="De1ImopoqIkRaQfG8N2U-146" value="3a" style="text;html=1;resizable=0;autosize=1;align=center;verticalAlign=middle;points=[];fillColor=none;strokeColor=none;rounded=0;" vertex="1" parent="1">
          <mxGeometry x="270" y="525" width="40" height="30" as="geometry" />
        </mxCell>
        <mxCell id="De1ImopoqIkRaQfG8N2U-147" value="4a" style="text;html=1;resizable=0;autosize=1;align=center;verticalAlign=middle;points=[];fillColor=none;strokeColor=none;rounded=0;" vertex="1" parent="1">
          <mxGeometry x="300" y="525" width="40" height="30" as="geometry" />
        </mxCell>
        <mxCell id="De1ImopoqIkRaQfG8N2U-148" value="2b" style="text;html=1;resizable=0;autosize=1;align=center;verticalAlign=middle;points=[];fillColor=none;strokeColor=none;rounded=0;" vertex="1" parent="1">
          <mxGeometry x="270" y="656" width="40" height="30" as="geometry" />
        </mxCell>
        <mxCell id="De1ImopoqIkRaQfG8N2U-149" value="3b" style="text;html=1;resizable=0;autosize=1;align=center;verticalAlign=middle;points=[];fillColor=none;strokeColor=none;rounded=0;" vertex="1" parent="1">
          <mxGeometry x="240" y="655" width="40" height="30" as="geometry" />
        </mxCell>
        <mxCell id="De1ImopoqIkRaQfG8N2U-150" value="4b" style="text;html=1;resizable=0;autosize=1;align=center;verticalAlign=middle;points=[];fillColor=none;strokeColor=none;rounded=0;" vertex="1" parent="1">
          <mxGeometry x="300" y="655" width="40" height="30" as="geometry" />
        </mxCell>
        <mxCell id="De1ImopoqIkRaQfG8N2U-151" value="&lt;font style=&quot;font-size: 36px;&quot;&gt;+&lt;/font&gt;" style="text;html=1;resizable=0;autosize=1;align=center;verticalAlign=middle;points=[];fillColor=none;strokeColor=none;rounded=0;" vertex="1" parent="1">
          <mxGeometry x="270" y="570" width="40" height="60" as="geometry" />
        </mxCell>
        <mxCell id="De1ImopoqIkRaQfG8N2U-152" value="" style="rounded=0;whiteSpace=wrap;html=1;fontSize=36;" vertex="1" parent="1">
          <mxGeometry x="425" y="640" width="30" height="60" as="geometry" />
        </mxCell>
        <mxCell id="De1ImopoqIkRaQfG8N2U-153" value="" style="rounded=0;whiteSpace=wrap;html=1;fontSize=36;" vertex="1" parent="1">
          <mxGeometry x="455" y="640" width="30" height="60" as="geometry" />
        </mxCell>
        <mxCell id="De1ImopoqIkRaQfG8N2U-154" value="" style="rounded=0;whiteSpace=wrap;html=1;fontSize=36;" vertex="1" parent="1">
          <mxGeometry x="485" y="640" width="30" height="60" as="geometry" />
        </mxCell>
        <mxCell id="De1ImopoqIkRaQfG8N2U-155" value="" style="rounded=0;whiteSpace=wrap;html=1;fontSize=36;" vertex="1" parent="1">
          <mxGeometry x="425" y="510" width="30" height="60" as="geometry" />
        </mxCell>
        <mxCell id="De1ImopoqIkRaQfG8N2U-156" value="" style="rounded=0;whiteSpace=wrap;html=1;fontSize=36;" vertex="1" parent="1">
          <mxGeometry x="455" y="510" width="30" height="60" as="geometry" />
        </mxCell>
        <mxCell id="De1ImopoqIkRaQfG8N2U-157" value="" style="rounded=0;whiteSpace=wrap;html=1;fontSize=36;" vertex="1" parent="1">
          <mxGeometry x="485" y="510" width="30" height="60" as="geometry" />
        </mxCell>
        <mxCell id="De1ImopoqIkRaQfG8N2U-158" value="2a" style="text;html=1;resizable=0;autosize=1;align=center;verticalAlign=middle;points=[];fillColor=none;strokeColor=none;rounded=0;" vertex="1" parent="1">
          <mxGeometry x="420" y="525" width="40" height="30" as="geometry" />
        </mxCell>
        <mxCell id="De1ImopoqIkRaQfG8N2U-159" value="3a" style="text;html=1;resizable=0;autosize=1;align=center;verticalAlign=middle;points=[];fillColor=none;strokeColor=none;rounded=0;" vertex="1" parent="1">
          <mxGeometry x="450" y="525" width="40" height="30" as="geometry" />
        </mxCell>
        <mxCell id="De1ImopoqIkRaQfG8N2U-160" value="4a" style="text;html=1;resizable=0;autosize=1;align=center;verticalAlign=middle;points=[];fillColor=none;strokeColor=none;rounded=0;" vertex="1" parent="1">
          <mxGeometry x="480" y="525" width="40" height="30" as="geometry" />
        </mxCell>
        <mxCell id="De1ImopoqIkRaQfG8N2U-161" value="2b" style="text;html=1;resizable=0;autosize=1;align=center;verticalAlign=middle;points=[];fillColor=none;strokeColor=none;rounded=0;" vertex="1" parent="1">
          <mxGeometry x="480" y="655" width="40" height="30" as="geometry" />
        </mxCell>
        <mxCell id="De1ImopoqIkRaQfG8N2U-162" value="3b" style="text;html=1;resizable=0;autosize=1;align=center;verticalAlign=middle;points=[];fillColor=none;strokeColor=none;rounded=0;" vertex="1" parent="1">
          <mxGeometry x="420" y="656" width="40" height="30" as="geometry" />
        </mxCell>
        <mxCell id="De1ImopoqIkRaQfG8N2U-163" value="4b" style="text;html=1;resizable=0;autosize=1;align=center;verticalAlign=middle;points=[];fillColor=none;strokeColor=none;rounded=0;" vertex="1" parent="1">
          <mxGeometry x="450" y="655" width="40" height="30" as="geometry" />
        </mxCell>
        <mxCell id="De1ImopoqIkRaQfG8N2U-164" value="&lt;font style=&quot;font-size: 36px;&quot;&gt;+&lt;/font&gt;" style="text;html=1;resizable=0;autosize=1;align=center;verticalAlign=middle;points=[];fillColor=none;strokeColor=none;rounded=0;" vertex="1" parent="1">
          <mxGeometry x="450" y="570" width="40" height="60" as="geometry" />
        </mxCell>
        <mxCell id="De1ImopoqIkRaQfG8N2U-179" value="" style="endArrow=classic;html=1;rounded=0;fontSize=12;" edge="1" parent="1">
          <mxGeometry width="50" height="50" relative="1" as="geometry">
            <mxPoint x="90" y="300" as="sourcePoint" />
            <mxPoint x="90" y="360" as="targetPoint" />
          </mxGeometry>
        </mxCell>
        <mxCell id="De1ImopoqIkRaQfG8N2U-181" value="&lt;font style=&quot;font-size: 48px;&quot;&gt;....&lt;/font&gt;" style="text;html=1;strokeColor=none;fillColor=none;align=center;verticalAlign=middle;whiteSpace=wrap;rounded=0;fontSize=12;" vertex="1" parent="1">
          <mxGeometry x="365" y="180" width="60" height="30" as="geometry" />
        </mxCell>
        <mxCell id="De1ImopoqIkRaQfG8N2U-182" value="&lt;font style=&quot;font-size: 48px;&quot;&gt;....&lt;/font&gt;" style="text;html=1;strokeColor=none;fillColor=none;align=center;verticalAlign=middle;whiteSpace=wrap;rounded=0;fontSize=12;" vertex="1" parent="1">
          <mxGeometry x="350" y="580" width="60" height="30" as="geometry" />
        </mxCell>
      </root>
    </mxGraphModel>
  </diagram>
</mxfile>
